<svg xmlns="http://www.w3.org/2000/svg" width="456" height="456" version="1.1"><rect id="backgroundrect" width="100%" height="100%" x="0" y="0" fill="none" stroke="none"/>
    
<g class="currentLayer" style=""><title>Layer 1</title><rect x="0" y="0" width="456" height="456" fill="#512BD4" id="svg_1" class=""/><path fill="#ffffff" stroke-dashoffset="" fill-rule="nonzero" marker-start="" marker-mid="" marker-end="" id="svg_2" d="M73.6243629470778,137.64602983980194 L104.8950932142761,137.64602983980194 L104.8950932142761,106.3752964886975 L134.33224995070293,106.3752964886975 L134.33224995070293,137.64602983980194 L165.60296788227623,137.64602983980194 L165.60296788227623,167.08318657622735 L134.33224995070293,167.08318657622735 L134.33224995070293,198.3539045078008 L104.8950932142761,198.3539045078008 L104.8950932142761,167.08318657622735 L73.6243629470778,167.08318657622735 L73.6243629470778,137.64602983980194 z" style="color: rgb(0, 0, 0);"/><path fill="#ffffff" stroke-dashoffset="" fill-rule="nonzero" marker-start="" marker-mid="" marker-end="" id="svg_4" d="M297.2583359963848,234.07581325306018 L297.2583359963848,234.07581325306018 C308.16602702628774,234.07581325306018 317.0084638488219,242.91825007559515 317.0084638488219,253.82594110549837 C317.0084638488219,264.73364079979893 308.1660313584863,273.57606895793504 297.2583359963848,273.57606895793504 C286.3506319698841,273.57606895793504 277.5082081439347,264.7336494641967 277.5082081439347,253.82594110549837 C277.5082081439347,242.91824574339512 286.35062763768553,234.07581325306018 297.2583359963848,234.07581325306018 zM297.2583359963848,362.4180654253885 C286.3506319698841,362.4180654253885 277.5082081439347,353.57563726725334 277.5082081439347,342.66793324075314 C277.5082081439347,331.7602422108373 286.35062763768553,322.9178053883046 297.2583359963848,322.9178053883046 C308.16602702628774,322.9178053883046 317.0084638488219,331.76023787863795 317.0084638488219,342.66793324075314 C317.0084638488219,353.57563726725334 308.1660313584863,362.4180654253885 297.2583359963848,362.4180654253885 zM239.17761996954877,278.4968093206809 L355.3390476910208,278.4968093206809 L355.3390476910208,317.9970693577551 L239.17761996954877,317.9970693577551 L239.17761996954877,278.4968093206809 z" style="color: rgb(0, 0, 0);"/></g></svg>