<svg xmlns="http://www.w3.org/2000/svg" width="456" height="456" version="1.1"><rect id="backgroundrect" width="100%" height="100%" x="0" y="0" fill="none" stroke="none"/>
    
<g class="currentLayer" style=""><title>Layer 1</title><rect x="-0.5681818127632141" y="-0.5681818127632141" width="456" height="456" fill="#512BD4" id="svg_1" class=""/><path fill="none" stroke="#ffffff" stroke-dashoffset="" fill-rule="nonzero" marker-start="" marker-mid="" marker-end="" id="svg_3" d="M48.78262903878862,61.22863140363782 L71.57662876163806,61.22863140363782 L71.57662876163806,38.43462943285372 L93.03409191514324,38.43462943285372 L93.03409191514324,61.22863140363782 L115.82808264625277,61.22863140363782 L115.82808264625277,82.68609455714198 L93.03409191514324,82.68609455714198 L93.03409191514324,105.48008528825248 L71.57662876163806,105.48008528825248 L71.57662876163806,82.68609455714198 L48.78262903878862,82.68609455714198 L48.78262903878862,61.22863140363782 z" style="color: rgb(0, 0, 0);"/><path fill="none" stroke="#ffffff" stroke-dashoffset="" fill-rule="nonzero" marker-start="" marker-mid="" marker-end="" id="svg_5" d="M74.83373837289298,260.57069338022404 L148.69735920162458,260.57069338022404 L148.69735920162458,284.21027380079613 L74.83373837289298,284.21027380079613 L74.83373837289298,260.57069338022404 z" style="color: rgb(0, 0, 0);" class=""/><path fill="none" stroke="#ffffff" stroke-dashoffset="" fill-rule="nonzero" marker-start="" marker-mid="" marker-end="" id="svg_7" d="M331.02127249289293,352.6569148357203 L347.96515171357737,335.71303561503584 L365.9643718524503,353.7121082467813 L383.96359199131797,335.71303561503584 L400.9076304260431,352.6569148357203 L382.90840560440887,370.6561349745925 L400.9076304260431,388.6553551134712 L383.96359199131797,405.59939354818613 L365.9643718524503,387.60016872654984 L347.96515171357737,405.59939354818613 L331.02127249289293,388.6553551134712 L349.02034512463916,370.6561349745925 L331.02127249289293,352.6569148357203 z" style="color: rgb(0, 0, 0);" class=""/><path fill="none" stroke="#ffffff" stroke-dashoffset="" fill-rule="nonzero" marker-start="" marker-mid="" marker-end="" id="svg_2" d="M309.2897893200443,142.50849159672828 L309.2897893200443,142.50849159672828 C315.8571290167174,142.50849159672828 321.1810134392516,147.83237601926692 321.1810134392516,154.39971571593577 C321.1810134392516,160.9670606293003 315.85713162506323,166.29093983514105 309.2897893200443,166.29093983514105 C302.72244179833996,166.29093983514105 297.39856520083936,160.96706584598354 297.39856520083936,154.39971571593577 C297.39856520083936,147.83237341091726 302.72243918999544,142.50849159672828 309.2897893200443,142.50849159672828 zM309.2897893200443,219.78123109225265 C302.72244179833996,219.78123109225265 297.39856520083936,214.45735188640697 297.39856520083936,207.8900043646994 C297.39856520083936,201.32266466802838 302.72243918999544,195.99878024549548 309.2897893200443,195.99878024549548 C315.8571290167174,195.99878024549548 321.1810134392516,201.32266205968585 321.1810134392516,207.8900043646994 C321.1810134392516,214.45735188640697 315.85713162506323,219.78123109225265 309.2897893200443,219.78123109225265 zM274.3203543655386,169.25363592111097 L344.25922166620705,169.25363592111097 L344.25922166620705,193.03608676786763 L274.3203543655386,193.03608676786763 L274.3203543655386,169.25363592111097 z" style="color: rgb(0, 0, 0);" class=""/></g></svg>